<svg xmlns="http://www.w3.org/2000/svg" xmlns:xlink="http://www.w3.org/1999/xlink" width="500" zoomAndPan="magnify" viewBox="0 0 375 374.999991" height="500" preserveAspectRatio="xMidYMid meet" version="1.0"><defs><clipPath id="d4f6913815"><path d="M 0 14 L 370 14 L 370 361.742188 L 0 361.742188 Z M 0 14 " clip-rule="nonzero"/></clipPath><clipPath id="11f335e726"><path d="M 71 163 L 289 163 L 289 255 L 71 255 Z M 71 163 " clip-rule="nonzero"/></clipPath><clipPath id="a9f6f293e2"><path d="M 303.703125 220.511719 L 87.152344 279.453125 L 71.589844 222.273438 L 288.140625 163.332031 Z M 303.703125 220.511719 " clip-rule="nonzero"/></clipPath><clipPath id="e4615d81e4"><path d="M 303.703125 220.511719 L 87.152344 279.453125 L 71.589844 222.273438 L 288.140625 163.332031 Z M 303.703125 220.511719 " clip-rule="nonzero"/></clipPath><clipPath id="0cff55e5a6"><path d="M 275 141 L 308 141 L 308 171 L 275 171 Z M 275 141 " clip-rule="nonzero"/></clipPath><clipPath id="41967ce91b"><path d="M 284.933594 130 L 318.128906 157.125 L 306.160156 171.769531 L 272.964844 144.644531 Z M 284.933594 130 " clip-rule="nonzero"/></clipPath><clipPath id="c5be98230f"><path d="M 284.933594 130 L 318.128906 157.125 L 306.160156 171.769531 L 272.964844 144.644531 Z M 284.933594 130 " clip-rule="nonzero"/></clipPath></defs><g clip-path="url(#d4f6913815)"><path fill="#0047ff" d="M 2.058594 187.253906 C 0.0976562 170.640625 0.78125 154.816406 4.015625 140.460938 C 8.625 120.015625 18.527344 102.515625 33.230469 90.132812 C 52.148438 74.304688 78.421875 67.128906 111.457031 73.027344 C 121.554688 74.796875 131.261719 77.648438 140.964844 80.496094 C 158.804688 85.707031 176.058594 88.558594 191.746094 84.625 C 208.3125 80.496094 223.015625 68.996094 236.054688 54.25 C 238.015625 52.089844 239.976562 49.828125 241.933594 47.566406 C 256.050781 31.738281 270.65625 21.121094 284.96875 16.796875 C 293.5 14.242188 301.929688 13.75 309.96875 15.519531 C 318.105469 17.289062 325.75 21.222656 332.710938 27.511719 C 344.472656 38.03125 354.472656 55.234375 361.921875 79.90625 C 372.609375 115.394531 374.375 173.394531 346.53125 237.980469 C 330.945312 274.15625 273.011719 356.238281 217.722656 361.742188 C 272.03125 317.210938 304.871094 270.8125 323.398438 227.855469 C 348.492188 169.558594 347.21875 118.246094 337.90625 87.183594 C 331.828125 67.128906 324.378906 53.757812 316.046875 46.289062 C 312.320312 43.042969 308.59375 40.980469 304.675781 40.09375 C 300.851562 39.210938 296.734375 39.503906 292.421875 40.785156 C 282.617188 43.730469 271.835938 51.792969 260.855469 64.179688 C 258.894531 66.441406 256.933594 68.601562 254.972656 70.863281 C 237.71875 90.425781 221.839844 108.414062 203.214844 123.0625 C 165.570312 152.652344 118.710938 166.121094 93.324219 141.25 C 113.320312 139.28125 158.023438 124.734375 172.238281 113.429688 C 159.296875 111.953125 146.652344 108.21875 134.101562 104.582031 C 124.984375 101.925781 115.96875 99.273438 107.242188 97.699219 C 82.246094 93.277344 62.933594 98.09375 49.601562 109.300781 C 39.308594 117.949219 32.25 130.632812 28.820312 145.867188 C 25.191406 161.890625 25.585938 180.570312 30.09375 200.132812 C 41.171875 247.710938 102.734375 316.128906 164.199219 336.183594 C 72.246094 336.476562 9.113281 247.023438 2.058594 187.253906 " fill-opacity="1" fill-rule="nonzero"/></g><g clip-path="url(#11f335e726)"><g clip-path="url(#a9f6f293e2)"><g clip-path="url(#e4615d81e4)"><path fill="#0047ff" d="M 288.40625 164.316406 C 286.9375 169.476562 285.039062 174.476562 282.714844 179.316406 C 281.582031 181.753906 280.3125 184.128906 279.007812 186.496094 L 278.523438 187.382812 L 278.003906 188.246094 L 276.957031 189.976562 L 276.433594 190.839844 L 275.886719 191.695312 L 274.792969 193.414062 C 268.753906 202.613281 261.648438 210.90625 253.480469 218.300781 C 237.152344 233.1875 216.960938 244.097656 195.417969 249.9375 C 173.871094 255.777344 150.949219 256.621094 129.34375 252.082031 C 118.5625 249.84375 108.234375 246.296875 98.363281 241.433594 L 96.554688 240.507812 L 95.648438 240.046875 L 94.757812 239.566406 L 92.976562 238.609375 C 92.691406 238.445312 92.382812 238.289062 92.089844 238.128906 L 91.226562 237.609375 L 89.492188 236.566406 C 88.917969 236.222656 88.339844 235.878906 87.757812 235.515625 C 87.175781 235.152344 86.617188 234.800781 86.058594 234.425781 C 85.5 234.054688 84.933594 233.695312 84.382812 233.304688 C 79.925781 230.316406 75.753906 226.976562 71.867188 223.277344 L 72.5625 222.066406 C 81.566406 227.0625 90.972656 231.140625 100.78125 234.304688 C 110.5625 237.503906 120.566406 239.71875 130.792969 240.945312 C 133.335938 241.253906 135.886719 241.5 138.449219 241.675781 C 141.007812 241.855469 143.566406 241.980469 146.117188 242.058594 C 151.246094 242.1875 156.367188 242.066406 161.492188 241.695312 C 171.746094 240.929688 181.835938 239.195312 191.757812 236.496094 C 201.683594 233.792969 211.257812 230.175781 220.488281 225.636719 C 225.078125 223.363281 229.554688 220.871094 233.921875 218.160156 C 236.097656 216.804688 238.242188 215.398438 240.347656 213.9375 C 242.457031 212.476562 244.535156 210.972656 246.589844 209.425781 C 254.773438 203.1875 262.269531 196.210938 269.074219 188.496094 C 275.925781 180.792969 281.964844 172.503906 287.195312 163.625 Z M 288.40625 164.316406 " fill-opacity="1" fill-rule="nonzero"/></g></g></g><g clip-path="url(#0cff55e5a6)"><g clip-path="url(#41967ce91b)"><g clip-path="url(#c5be98230f)"><path fill="#0047ff" d="M 275.289062 143.234375 C 275.035156 144.515625 287.8125 144.375 297.003906 154.457031 C 303.839844 161.957031 304.316406 170.320312 305.863281 169.996094 C 307.640625 169.621094 309.589844 158.046875 303.941406 150.242188 C 295.671875 138.816406 275.601562 141.644531 275.289062 143.234375 " fill-opacity="1" fill-rule="nonzero"/></g></g></g></svg>